<?xml version="1.0" encoding="UTF-8" standalone="no"?>
<svg
   xmlns:dc="http://purl.org/dc/elements/1.1/"
   xmlns:cc="http://creativecommons.org/ns#"
   xmlns:rdf="http://www.w3.org/1999/02/22-rdf-syntax-ns#"
   xmlns:svg="http://www.w3.org/2000/svg"
   xmlns="http://www.w3.org/2000/svg"
   xmlns:xlink="http://www.w3.org/1999/xlink"
   xmlns:sodipodi="http://sodipodi.sourceforge.net/DTD/sodipodi-0.dtd"
   xmlns:inkscape="http://www.inkscape.org/namespaces/inkscape"
   id="svg6394"
   preserveAspectRatio="xMidYMid meet"
   viewBox="0 0 5000 5000"
   height="500px"
   width="500px"
   version="1.0"
   sodipodi:docname="DigiHumanitiesLogo.svg"
   inkscape:version="0.92.4 5da689c313, 2019-01-14">
  <sodipodi:namedview
     pagecolor="#ffffff"
     bordercolor="#666666"
     borderopacity="1"
     objecttolerance="10"
     gridtolerance="10"
     guidetolerance="10"
     inkscape:pageopacity="0"
     inkscape:pageshadow="2"
     inkscape:window-width="1920"
     inkscape:window-height="1025"
     id="namedview7821"
     showgrid="false"
     inkscape:zoom="0.90292303"
     inkscape:cx="-207.09019"
     inkscape:cy="247.21061"
     inkscape:window-x="0"
     inkscape:window-y="0"
     inkscape:window-maximized="1"
     inkscape:current-layer="svg6394" />
  <metadata
     id="metadata6400">
    <rdf:RDF>
      <cc:Work
         rdf:about="">
        <dc:format>image/svg+xml</dc:format>
        <dc:type
           rdf:resource="http://purl.org/dc/dcmitype/StillImage" />
        <dc:title />
      </cc:Work>
    </rdf:RDF>
  </metadata>
  <defs
     id="defs6398">
    <linearGradient
       inkscape:collect="always"
       id="linearGradient7843">
      <stop
         style="stop-color:#000000;stop-opacity:1;"
         offset="0"
         id="stop7839" />
      <stop
         style="stop-color:#000000;stop-opacity:0;"
         offset="1"
         id="stop7841" />
    </linearGradient>
    <linearGradient
       inkscape:collect="always"
       xlink:href="#linearGradient7843"
       id="linearGradient7845"
       x1="101.80143"
       y1="242.04492"
       x2="376.21811"
       y2="242.04492"
       gradientUnits="userSpaceOnUse" />
  </defs>
  <circle
     r="2167"
     cy="2521.9617"
     cx="2451.4834"
     id="path7137"
     style="fill:#626262;fill-opacity:1;stroke-width:10.83499241" />
  <g
     style="fill:#605856;stroke:none"
     transform="translate(-10363.476,840.28255)"
     id="layer101">
    <path
       id="path2"
       d="m 1724,4346 c -33,-13 -85,-41 -115,-63 -54,-41 -158,-147 -192,-197 -17,-25 -22,-26 -102,-26 -52,0 -94,-5 -112,-14 -15,-8 -48,-20 -73,-27 -101,-29 -250,-159 -315,-274 -65,-115 -83,-182 -91,-330 -3,-44 -7,-91 -10,-104 -3,-14 -38,-59 -78,-100 -40,-42 -93,-107 -118,-146 -48,-73 -112,-201 -122,-245 -18,-77 -33,-137 -40,-151 -10,-22 -1,-344 11,-399 23,-109 89,-265 150,-358 25,-37 77,-100 116,-140 l 72,-72 6,-133 c 6,-146 13,-175 71,-294 30,-60 60,-100 112,-152 67,-67 172,-141 199,-141 7,0 21,-6 32,-14 21,-14 51,-21 155,-36 100,-15 103,-16 130,-67 52,-101 157,-190 288,-246 59,-25 73,-27 212,-27 88,0 151,4 155,10 3,5 14,10 23,10 30,0 142,64 196,111 29,26 73,78 98,116 l 46,68 5,513 c 4,325 9,518 16,526 13,16 21,85 10,92 -5,3 -9,22 -9,43 0,21 -2,40 -5,43 -3,3 -5,440 -5,972 0,1114 13,991 -112,1113 -71,69 -170,133 -206,133 -10,0 -27,7 -38,15 -15,11 -50,14 -159,14 -118,-1 -150,-5 -201,-23 z m 346,-218 c 66,-26 99,-48 159,-104 l 61,-56 v -77 -77 l -47,-45 c -46,-44 -106,-79 -135,-79 -8,0 -19,-5 -25,-11 -15,-15 -185,-6 -258,14 -33,9 -73,16 -89,17 -29,0 -29,0 -11,-20 10,-12 25,-18 33,-15 8,3 30,-3 51,-14 20,-10 68,-24 106,-29 39,-6 85,-14 103,-18 21,-4 38,-2 48,7 9,7 29,12 45,11 16,-1 47,7 69,18 22,11 40,18 40,15 0,-4 10,1 21,9 50,34 49,42 49,-528 0,-518 -1,-533 -21,-575 -11,-24 -39,-64 -62,-89 -44,-47 -136,-112 -160,-112 -8,0 -20,-7 -27,-15 -7,-8 -23,-15 -35,-15 -12,0 -28,-7 -35,-15 -9,-11 -33,-15 -85,-15 -52,0 -76,-4 -85,-15 -10,-12 -43,-15 -176,-15 -89,0 -165,-4 -168,-9 -3,-5 -30,-12 -61,-16 -30,-3 -57,-11 -60,-16 -4,-5 -13,-9 -21,-9 -31,0 -123,-81 -124,-109 0,-10 5,-10 25,3 13,9 31,16 38,16 8,0 20,7 27,15 22,27 72,43 166,54 113,14 271,14 279,1 3,-5 19,-10 34,-10 15,0 36,-7 47,-15 10,-8 29,-15 40,-15 12,0 27,-7 34,-15 7,-8 18,-15 25,-15 47,0 327,-246 355,-312 6,-13 14,-30 19,-38 29,-50 32,-71 28,-255 -4,-205 -10,-243 -49,-320 -26,-49 -151,-180 -195,-204 -33,-17 -28,-31 11,-31 40,0 123,39 170,81 54,47 66,40 66,-38 v -67 l -57,-56 c -59,-56 -172,-120 -215,-120 -13,-1 -34,-7 -48,-15 -32,-19 -149,-20 -175,-1 -11,7 -27,13 -35,14 -58,2 -134,40 -211,104 -115,96 -134,158 -48,158 39,0 117,32 131,54 12,19 -10,30 -36,18 -14,-6 -84,-12 -159,-13 -120,-1 -140,1 -183,21 -27,13 -54,24 -60,25 -45,10 -254,192 -254,221 0,6 -7,17 -15,24 -8,7 -15,20 -15,30 0,10 -7,23 -15,30 -8,7 -15,20 -15,30 0,10 -7,23 -15,30 -9,8 -15,30 -15,60 0,30 -6,52 -15,60 -16,13 -20,58 -7,75 4,6 74,10 174,10 120,0 171,4 180,13 6,6 35,12 63,12 27,1 61,7 75,15 14,8 48,14 76,15 33,0 56,5 64,15 18,22 412,22 430,0 7,-8 24,-15 37,-15 17,0 44,-19 84,-59 55,-55 59,-63 59,-105 0,-53 -26,-100 -86,-157 -45,-42 -147,-99 -178,-99 -12,0 -31,-7 -42,-15 -14,-9 -53,-15 -118,-17 -139,-4 -122,-22 24,-26 96,-2 125,1 143,13 12,8 29,15 38,15 52,0 249,159 249,201 0,9 7,22 15,29 21,18 19,77 -5,107 -11,14 -18,29 -15,33 9,15 -137,142 -157,137 -10,-3 -29,3 -42,14 -22,17 -43,19 -254,19 -192,0 -232,-2 -242,-15 -9,-10 -31,-15 -73,-15 -41,0 -66,-5 -78,-15 -14,-13 -48,-16 -199,-16 -131,0 -186,4 -197,13 -8,6 -22,13 -32,15 -9,1 -26,15 -39,30 -13,15 -41,49 -63,75 -33,39 -39,54 -39,91 0,27 -6,49 -15,57 -20,17 -20,109 0,136 8,10 15,28 15,40 0,26 55,104 74,104 7,0 19,7 26,15 7,8 22,15 34,15 11,0 30,7 40,15 11,8 34,15 52,15 17,0 45,7 60,15 16,8 45,15 65,15 20,0 50,7 65,15 16,8 48,15 71,15 23,0 44,4 48,9 3,6 27,13 53,16 26,3 54,10 63,15 9,4 37,11 63,15 25,4 49,11 52,16 3,5 15,9 28,9 12,0 31,7 42,15 10,8 29,15 40,15 12,0 27,7 34,15 7,8 21,15 31,15 11,0 38,14 61,30 22,17 46,30 53,30 18,0 188,170 223,223 29,43 32,56 32,121 0,53 -4,77 -15,86 -8,7 -15,21 -15,31 0,29 -104,129 -134,129 -38,0 -40,-16 -4,-38 36,-22 76,-64 96,-99 19,-35 15,-121 -9,-169 -21,-44 -133,-157 -173,-175 -11,-5 -34,-18 -51,-29 -16,-11 -37,-22 -45,-26 -8,-3 -26,-10 -40,-16 -14,-5 -38,-16 -53,-24 -16,-8 -39,-14 -52,-14 -12,0 -28,-7 -35,-15 -7,-9 -29,-15 -55,-15 -26,0 -48,-6 -55,-15 -9,-10 -32,-15 -75,-15 -43,0 -66,-5 -75,-15 -9,-10 -32,-15 -76,-15 -34,0 -65,-4 -68,-9 -3,-5 -30,-12 -61,-16 -30,-3 -57,-11 -60,-16 -4,-5 -26,-9 -49,-9 -27,0 -48,-6 -56,-15 -7,-8 -25,-15 -40,-15 -15,0 -33,-7 -40,-15 -7,-8 -20,-15 -30,-15 -17,0 -95,-78 -136,-135 -37,-53 -44,-29 -44,166 0,150 2,181 15,185 10,4 15,20 15,49 0,26 6,47 15,55 8,7 15,20 15,30 0,18 17,53 50,105 11,17 24,40 29,52 15,34 142,163 160,163 9,0 32,-13 51,-28 83,-68 117,-83 181,-80 60,3 85,20 39,26 -13,2 -33,10 -44,18 -11,8 -29,14 -39,14 -55,0 -136,111 -149,205 -22,152 5,271 76,333 125,109 298,109 414,-1 30,-29 32,-36 32,-94 0,-38 -6,-76 -16,-94 -8,-17 -14,-39 -12,-49 3,-17 6,-18 28,-7 13,7 35,28 47,46 19,29 23,47 23,117 0,49 -4,84 -10,84 -5,0 -10,7 -10,16 0,20 -110,123 -131,124 -9,0 -22,7 -29,15 -7,9 -29,15 -51,15 -40,0 -53,9 -44,32 7,19 63,54 80,50 8,-1 27,5 42,15 22,14 44,17 122,15 65,-3 101,-8 112,-18 24,-21 236,-20 260,2 9,8 25,17 34,18 24,4 86,56 80,67 -8,12 -52,12 -60,-1 -11,-17 -184,-11 -244,9 -56,18 -67,28 -53,46 14,21 92,76 111,80 11,2 29,9 40,15 12,6 21,8 21,5 0,-3 6,-2 14,2 22,13 276,-2 316,-19 z m 220,-1957 c 0,-152 -4,-242 -10,-246 -6,-4 -34,18 -63,47 -65,65 -169,144 -224,167 -11,6 -24,15 -28,20 -3,6 -14,11 -23,11 -9,1 -28,10 -41,21 -35,29 -18,52 42,59 26,3 52,11 59,18 7,7 24,12 39,12 15,0 32,7 39,15 7,8 19,15 27,15 7,0 37,17 66,38 63,47 88,61 105,62 9,0 12,-54 12,-239 z"
       inkscape:connector-curvature="0" />
    <path
       id="path4"
       d="m 2875,4360 c -3,-5 -17,-10 -29,-10 -13,0 -29,-7 -36,-15 -7,-8 -20,-15 -30,-15 -10,0 -23,-7 -30,-15 -7,-8 -19,-15 -27,-15 -20,0 -165,-148 -186,-189 -16,-32 -17,-149 -17,-1609 0,-1395 1,-1577 15,-1592 8,-9 15,-24 15,-33 0,-18 166,-197 184,-197 6,0 31,-14 56,-30 25,-16 56,-30 70,-30 14,0 34,-7 44,-15 28,-21 269,-21 310,0 15,8 34,15 41,15 6,0 40,14 74,31 71,36 175,138 225,220 l 32,54 70,6 c 76,7 144,24 186,45 14,8 31,14 37,14 23,0 129,81 192,147 68,70 119,142 119,167 0,7 7,19 15,26 8,7 15,27 15,45 0,18 7,38 15,45 12,10 15,40 15,147 v 135 l 91,96 c 76,81 99,113 145,206 30,61 59,115 65,121 5,5 9,19 9,31 0,12 7,27 15,34 10,8 15,30 15,65 0,35 5,57 15,65 12,10 15,42 15,170 0,128 -3,160 -15,170 -10,8 -15,30 -15,65 0,35 -5,57 -15,65 -8,7 -15,27 -15,45 0,18 -7,38 -15,45 -8,7 -15,19 -15,27 0,8 -27,63 -61,121 -44,78 -83,129 -140,186 l -79,79 v 97 c 0,75 -4,100 -15,110 -10,8 -15,31 -15,70 0,39 -5,62 -15,70 -8,7 -15,21 -15,32 0,48 -191,288 -230,288 -8,0 -28,14 -44,30 -16,17 -37,30 -47,30 -9,0 -32,8 -51,17 -18,9 -41,20 -50,25 -10,4 -60,8 -113,8 h -95 l -26,43 c -35,56 -201,217 -223,217 -10,0 -24,7 -31,15 -7,8 -27,15 -46,15 -18,0 -36,5 -39,10 -4,6 -68,10 -160,10 -92,0 -156,-4 -160,-10 z m 221,-195 c 10,-8 28,-15 40,-15 11,0 29,-7 40,-15 10,-8 27,-15 36,-15 9,0 30,-11 45,-25 33,-29 27,-36 -53,-55 -49,-12 -59,-12 -84,3 -15,9 -39,17 -52,17 -32,-1 -62,-44 -53,-77 6,-24 -8,-41 -137,-170 -78,-79 -150,-143 -159,-143 -39,0 -48,30 -49,165 -1,72 -1,135 -1,142 1,17 71,83 88,83 7,0 39,14 70,30 31,17 64,30 73,30 10,0 23,7 30,15 7,8 20,15 29,15 10,0 26,7 37,15 25,19 75,19 100,0 z m 255,-142 c 19,-19 0,-71 -45,-126 -23,-29 -45,-60 -49,-69 -13,-35 -139,-198 -153,-198 -11,0 -14,26 -14,140 v 140 l 30,32 c 17,17 30,36 30,43 0,11 151,54 178,50 7,0 17,-6 23,-12 z m 190,-90 c 40,-41 47,-55 52,-100 l 6,-53 -90,-130 c -50,-71 -94,-128 -99,-125 -11,7 0,297 12,312 5,6 8,39 7,74 -2,50 1,64 16,75 23,17 37,9 96,-53 z m -162,-208 c -7,-164 -12,-223 -23,-233 -11,-12 -29,-12 -110,-1 -83,11 -100,16 -117,37 l -19,24 94,137 c 148,217 179,261 182,258 1,-1 -2,-101 -7,-222 z m -321,28 2,-161 -30,-22 c -30,-22 -33,-22 -142,-9 l -111,14 v 54 l 1,53 118,120 c 160,160 158,161 162,-49 z m 743,84 c 20,-7 43,-17 50,-23 8,-5 31,-19 52,-29 47,-25 83,-62 90,-95 3,-14 9,-37 12,-51 5,-20 3,-27 -12,-31 -10,-3 -25,-9 -34,-12 -17,-7 -50,19 -182,144 -56,53 -57,56 -45,82 15,32 19,33 69,15 z m 4,-165 c 82,-74 105,-101 105,-121 0,-41 -11,-48 -90,-55 -41,-4 -111,-11 -155,-16 -90,-10 -235,-13 -235,-5 0,4 43,68 94,144 93,134 122,163 159,153 10,-2 65,-47 122,-100 z m -905,-143 c 47,-5 88,-16 92,-22 14,-21 8,-76 -10,-109 -50,-89 -113,-178 -126,-178 -17,0 -59,85 -96,192 -23,68 -24,80 -13,103 16,29 28,30 153,14 z m -152,-170 c 19,-59 32,-114 29,-123 -8,-20 -64,-21 -89,-3 -14,11 -17,33 -19,114 -2,106 3,126 29,121 10,-2 27,-40 50,-109 z m 532,92 c 81,-27 80,-37 -10,-216 -60,-120 -80,-151 -98,-153 -21,-3 -22,0 -22,60 0,41 -5,71 -15,84 -9,12 -14,43 -15,83 0,46 -6,73 -20,96 -19,30 -19,34 -5,49 22,22 114,20 185,-3 z m 625,-8 c 0,-15 -42,-65 -129,-153 -121,-121 -132,-130 -167,-130 -29,0 -41,5 -50,21 -6,12 -37,58 -69,102 -57,81 -78,135 -56,143 18,7 398,42 436,40 29,-1 35,-5 35,-23 z m -845,-42 c 0,-16 7,-34 15,-41 11,-9 15,-33 15,-85 0,-53 4,-76 15,-85 12,-10 15,-29 13,-79 -3,-64 -4,-66 -31,-69 -20,-3 -49,12 -110,54 -45,31 -86,61 -91,65 -13,11 145,269 165,269 5,0 9,-13 9,-29 z m 942,-18 c 9,-10 18,-38 21,-63 3,-25 11,-76 17,-113 8,-47 8,-73 1,-81 -7,-9 -7,-22 1,-44 9,-24 9,-60 -1,-159 -7,-70 -15,-157 -18,-193 -6,-92 -10,-107 -33,-113 -15,-4 -25,2 -38,21 -18,29 -138,195 -184,254 -15,20 -28,40 -28,43 0,4 -13,24 -30,45 -28,35 -29,42 -25,106 l 5,68 122,123 c 129,129 156,144 190,106 z m 98,3 c 0,-7 7,-19 15,-26 8,-7 15,-21 15,-32 0,-11 9,-31 20,-45 11,-14 17,-29 14,-34 -2,-5 3,-20 12,-34 9,-14 18,-33 18,-43 1,-9 8,-30 15,-47 8,-16 18,-41 23,-55 5,-14 16,-38 24,-53 8,-16 14,-37 14,-47 0,-9 7,-23 15,-30 8,-7 15,-22 15,-34 0,-11 7,-30 15,-40 8,-11 15,-27 15,-37 0,-9 7,-22 15,-29 8,-7 15,-23 15,-35 0,-12 7,-28 15,-35 8,-7 15,-22 15,-35 0,-12 11,-43 25,-69 28,-53 32,-111 10,-140 -19,-26 -19,-70 0,-86 22,-18 18,-55 -8,-98 -13,-20 -27,-44 -30,-52 -21,-45 -46,-75 -64,-78 -19,-3 -20,4 -26,115 -4,65 -10,215 -13,333 l -7,215 -43,51 c -66,79 -124,170 -124,198 0,13 -6,31 -14,38 -13,13 -36,168 -36,242 0,29 4,36 20,36 11,0 20,-6 20,-14 z m -641,-118 c 104,-144 105,-171 12,-206 -73,-27 -107,-35 -173,-39 l -68,-5 v 32 c 0,18 6,44 14,58 8,15 41,82 72,150 32,67 59,122 60,122 2,0 39,-51 83,-112 z m -695,-111 c 9,-15 6,-21 -14,-37 -14,-11 -37,-20 -52,-20 -26,0 -28,3 -28,41 v 40 l 41,-3 c 27,-2 46,-9 53,-21 z m 186,-78 c 112,-77 110,-74 110,-138 v -56 l -95,-60 c -53,-33 -112,-69 -133,-80 -20,-11 -41,-25 -47,-31 -16,-18 -58,-44 -71,-44 -21,0 -22,60 -1,86 10,14 17,28 13,31 -3,4 1,17 10,31 8,13 13,30 10,37 -3,8 4,25 15,39 11,14 18,30 15,35 -3,5 4,21 15,35 12,15 18,33 16,41 -3,7 3,25 15,40 11,14 17,32 14,40 -5,14 17,45 33,45 3,0 40,-23 81,-51 z m -183,-53 c -15,-113 -31,-146 -73,-146 -21,0 -23,5 -26,71 -2,39 -1,74 2,78 18,24 63,48 81,44 18,-5 20,-11 16,-47 z m 816,-96 c -1,-58 -6,-168 -10,-245 -12,-204 -3,-207 -242,90 -49,61 -66,90 -71,123 -8,52 3,66 63,83 23,7 74,23 112,35 39,13 88,22 110,21 l 40,-2 z m 159,-51 c 57,-77 110,-151 118,-162 8,-12 29,-42 47,-66 39,-52 41,-76 8,-113 -23,-27 -27,-27 -169,-34 l -146,-7 v 49 c 0,41 16,303 25,394 1,14 3,37 3,53 1,15 4,27 6,27 3,0 51,-63 108,-141 z m 412,58 c 46,-54 66,-93 66,-127 0,-11 -28,-58 -62,-105 -47,-64 -68,-85 -85,-85 -27,0 -29,19 -13,181 16,167 20,189 35,189 7,0 34,-24 59,-53 z m -1026,-94 c 26,-6 26,-7 5,-136 -21,-136 -26,-141 -128,-134 -130,10 -279,41 -273,59 7,19 343,227 358,222 8,-4 25,-9 38,-11 z m 179,-89 c 38,-48 92,-116 121,-151 31,-37 51,-70 48,-79 -4,-10 -25,-14 -84,-14 -44,0 -99,-2 -123,-5 -42,-6 -45,-4 -83,40 l -39,47 19,124 18,124 h 28 c 23,0 39,-15 95,-86 z m 947,-166 c 3,-90 9,-219 12,-287 5,-87 3,-122 -4,-120 -6,2 -43,55 -82,118 l -70,113 v 87 87 l 62,86 c 35,47 66,84 69,82 4,-2 9,-77 13,-166 z m -1479,-9 c 53,-13 127,-28 194,-39 68,-11 89,-30 73,-64 -6,-13 -21,-32 -34,-41 -13,-9 -70,-50 -127,-92 -115,-84 -159,-101 -192,-74 -20,16 -21,26 -20,156 1,82 6,144 13,152 12,15 39,16 93,2 z m 648,-111 c 12,-6 36,-14 52,-18 47,-9 44,-42 -12,-130 -26,-42 -65,-100 -86,-129 -35,-49 -40,-52 -75,-49 -31,2 -38,7 -40,28 -2,14 -16,59 -32,100 -40,107 -50,142 -50,178 v 32 h 111 c 65,0 119,-5 132,-12 z m 501,-20 c 12,-13 32,-30 45,-39 l 24,-15 -22,-150 c -12,-82 -25,-169 -29,-194 l -7,-45 -63,83 c -185,242 -239,320 -244,350 l -5,32 h 140 c 132,0 141,-1 161,-22 z m -776,-33 c 2,-16 12,-50 24,-75 21,-46 46,-123 55,-173 3,-17 -2,-41 -13,-62 -16,-30 -21,-33 -48,-27 -17,3 -112,22 -211,41 l -180,36 -3,32 c -4,35 -13,26 183,173 103,77 125,89 155,87 31,-2 35,-5 38,-32 z m 473,-52 c 18,-27 44,-61 59,-78 58,-63 229,-298 224,-306 -7,-12 -56,-11 -125,0 -30,5 -109,15 -177,22 -67,6 -125,16 -128,21 -3,4 -21,8 -40,8 -27,0 -34,4 -34,19 0,11 -4,23 -10,26 -23,14 -6,61 56,163 83,134 111,172 129,172 8,0 28,-21 46,-47 z m 461,30 c 9,-10 43,-63 78,-117 58,-94 61,-102 55,-143 -6,-43 -7,-44 -95,-88 -102,-51 -153,-59 -146,-22 3,12 15,99 26,192 12,94 23,176 25,183 6,18 39,15 57,-5 z M 2965,2085 c 77,-14 155,-29 173,-32 19,-3 36,-13 39,-22 3,-9 12,-31 20,-49 17,-40 19,-37 -142,-205 l -114,-118 -32,63 c -17,35 -65,127 -106,206 -41,79 -72,150 -69,158 7,19 45,34 71,29 11,-2 83,-16 160,-30 z m 1273,-54 c 2,-13 -1,-28 -7,-34 -6,-6 -11,-19 -11,-28 0,-10 -13,-38 -30,-62 -16,-25 -30,-50 -30,-57 0,-7 -13,-29 -30,-50 -16,-21 -30,-49 -30,-63 0,-14 -4,-29 -10,-32 -5,-3 -10,-30 -10,-58 0,-75 -11,-127 -26,-127 -13,0 -17,14 -33,115 -22,131 -30,171 -40,198 -29,74 0,113 135,177 54,27 104,47 109,46 6,-2 12,-13 13,-25 z M 2804,1859 c 67,-130 95,-194 88,-201 -7,-7 -44,-6 -116,2 l -106,13 v 188 c 0,254 3,254 134,-2 z m 838,106 c 237,-28 258,-31 258,-44 0,-9 -59,-78 -194,-226 -35,-38 -101,-112 -147,-162 -121,-136 -115,-141 -167,135 -23,125 -42,235 -42,244 0,21 48,78 65,78 8,0 110,-11 227,-25 z m -336,-56 c 7,-5 14,-26 17,-47 3,-20 22,-118 41,-217 39,-195 40,-203 27,-224 -7,-11 -46,6 -187,79 -99,51 -189,97 -201,104 -13,6 -23,17 -23,25 0,14 73,99 199,234 56,59 68,67 90,62 14,-4 31,-11 37,-16 z m 636,-76 c 18,-21 70,-296 61,-321 -3,-9 -21,-36 -40,-59 l -34,-43 h -163 c -133,0 -166,-3 -176,-15 -8,-9 -30,-15 -56,-15 -60,0 -58,20 9,90 51,54 235,252 312,338 41,46 63,52 87,25 z M 2796,1628 c 90,-11 95,-13 92,-34 -3,-24 -205,-257 -216,-250 -4,2 -6,70 -4,150 3,122 5,146 18,146 8,0 58,-5 110,-12 z m 375,-147 c 96,-49 174,-95 174,-102 0,-19 -635,-126 -645,-109 -14,23 2,48 112,174 140,160 122,158 359,37 z m 773,-123 c 9,-12 16,-27 16,-33 0,-18 -99,-133 -128,-149 -15,-8 -47,-24 -72,-36 -25,-11 -71,-34 -103,-50 -31,-17 -62,-30 -67,-30 -6,0 -31,43 -55,96 -34,73 -45,109 -45,145 v 49 h 128 c 97,0 133,4 148,15 12,9 44,14 91,15 63,0 74,-3 87,-22 z m -576,-37 c -2,-11 -72,-94 -157,-185 L 3058,970 h -70 -69 l -113,100 c -100,90 -112,104 -108,129 l 4,28 321,55 c 177,31 328,56 335,57 8,1 12,-7 10,-18 z m 79,-43 c 4,-7 29,-60 55,-116 34,-75 45,-109 39,-121 -17,-30 -118,-120 -142,-125 -60,-13 -292,-27 -301,-18 -25,25 2,66 147,226 149,164 180,188 202,154 z m -652,-227 c 78,-69 95,-88 95,-112 0,-44 -62,-67 -90,-34 -7,8 -21,15 -32,15 -23,0 -66,32 -88,65 -20,30 -16,158 6,153 7,-2 56,-41 109,-87 z m 514,-236 -67,-65 h -63 c -49,0 -67,4 -84,20 -19,18 -21,25 -11,54 l 10,34 96,7 c 52,4 100,8 105,10 6,2 26,4 45,4 l 35,1 z"
       inkscape:connector-curvature="0" />
  </g>
  <path
     id="path6330"
     d="m 2843.1252,4372.1154 c -89.4992,-24.641 -168.3523,-74.0669 -249.7879,-156.5692 -45.7747,-46.3742 -87.1278,-98.2363 -91.8959,-115.2491 -4.7681,-17.0129 -8.6692,-736.5205 -8.6692,-1598.9057 0,-1450.9558 1.4481,-1570.46774 19.4037,-1601.39744 38.4032,-66.1519 158.8376,-188.483 218.4395,-221.8798 106.5099,-59.6807 174.5481,-74.7404 314.7732,-69.6723 95.5534,3.4535 140.8916,10.7477 191.8841,30.8711 88.2778,34.8375 190.9626,121.9239 257.9763,218.7882 l 54.3256,78.5245 74.6654,8.0541 c 88.7636,9.5748 193.3888,42.5428 262.6723,82.76944 74.8834,43.4781 220.695,196.9307 255.5555,268.9476 54.8292,113.2694 67.7255,169.658 67.6653,295.8661 l -0.06,118.9566 80.8706,86.5954 c 80.5326,86.2336 143.125,181.3261 198.4763,301.532 56.773,123.2934 65.2626,147.5023 65.2626,186.1021 0,21.4736 5.4584,44.5012 12.1297,51.1725 14.4958,14.4958 8.0802,293.4913 -8.5436,371.5356 -39.0422,183.2933 -139.9405,373.6119 -272.659,514.3005 l -75.5366,80.0727 v 86.2244 c 0,50.658 -7.1073,103.2349 -17.2305,127.4629 -9.4767,22.6811 -17.2304,56.9819 -17.2304,76.2241 0,19.2422 -4.354,43.9616 -9.6755,54.9321 -5.3215,10.9706 -20.8663,43.2075 -34.5439,71.6378 -28.551,59.3462 -157.9474,218.0378 -191.8949,235.3398 -12.5507,6.3967 -38.2196,22.556 -57.0421,35.9094 -75.9433,53.8775 -146.0665,76.4572 -254.9113,82.0816 -98.8784,5.1093 -107.1029,7.4511 -125.3986,35.706 -36.6285,56.567 -182.1436,198.966 -228.262,223.374 -25.2713,13.3748 -74.3782,30.6271 -109.1263,38.3385 -74.929,16.6285 -264.7443,18.0181 -321.6355,2.3545 z m 243.5703,-191.1913 c 29.7193,-11.2871 57.7188,-24.2057 62.2212,-28.708 4.5023,-4.5023 16.0373,-8.1861 25.6334,-8.1861 18.4159,0 70.6195,-43.6084 70.6195,-58.9922 0,-4.9718 -26.8859,-17.0239 -59.7464,-26.7825 -54.7766,-16.2668 -63.9859,-16.1237 -110.7125,1.7213 -50.3931,19.2453 -51.2065,19.1672 -72.3539,-6.9487 -11.7633,-14.5271 -21.3878,-40.3202 -21.3878,-57.3181 0,-24.3081 -30.2553,-60.816 -141.7399,-171.0321 -77.957,-77.0698 -150.1431,-140.127 -160.4136,-140.127 -30.845,0 -40.907,35.7069 -49.2134,174.6443 l -7.9136,132.3672 38.9247,40.8306 c 26.1819,27.4639 80.2901,58.7834 165.2815,95.6703 69.4962,30.1618 131.2675,59.0161 137.2694,64.1207 17.7135,15.0652 65.7449,10.6871 123.5314,-11.2597 z m 238.883,-167.7956 c 0,-14.6907 -13.8385,-46.8159 -30.7521,-71.3895 -16.9137,-24.5735 -55.0881,-80.8631 -84.832,-125.088 -74.7432,-111.1322 -130.0327,-172.3032 -146.5243,-162.1109 -9.2415,5.7116 -13.4265,51.291 -13.1011,142.6866 l 0.478,134.2941 39.9201,45.2141 c 32.732,37.0729 53.8466,48.7391 117.2634,64.7896 86.6344,21.927 117.5478,14.4591 117.5478,-28.396 z m 169.2458,-44.275 c 96.0033,-98.3139 95.3649,-144.7561 -3.9276,-285.6878 -41.7497,-59.2578 -84.3951,-117.3578 -94.7676,-129.1112 -18.143,-20.5584 -19.0773,-20.1639 -24.6027,10.3894 -5.9952,33.1512 4.4779,263.9492 16.9028,372.4896 10.9997,96.0904 36.316,103.6857 106.3951,31.92 z m -146.0367,-216.3916 c -5.8023,-116.7691 -13.951,-221.1714 -18.1083,-232.0052 -14.2913,-37.2425 -195.1489,-18.5468 -238.3327,24.637 l -23.9935,23.9935 96.3445,141.0123 c 125.2197,183.2748 184.8506,264.4589 190.269,259.0405 2.4039,-2.4038 -0.377,-99.9089 -6.179,-216.6781 z m -329.1108,158.9567 c 3.8095,-14.2152 6.997,-89.0486 7.0832,-166.2965 0.154,-137.7905 -0.396,-140.8126 -29.0081,-159.5604 -24.3769,-15.9723 -46.3944,-17.809 -134.1106,-11.1873 -57.7201,4.3574 -109.2101,10.558 -114.4223,13.7793 -5.2122,3.2213 -9.4767,30.017 -9.4767,59.546 0,52.7454 2.0663,55.7624 117.5364,171.6269 64.6449,64.8658 126.0718,117.9377 136.504,117.9377 10.4323,0 22.0846,-11.6306 25.8941,-25.8457 z m 791.6086,-73.0786 c 117.113,-58.6346 143.8751,-87.0588 162.4627,-172.5522 7.0625,-32.4838 4.5158,-37.1472 -26.1171,-47.8258 -40.9206,-14.265 -55.6962,-5.6905 -162.5732,94.3433 -96.8864,90.6829 -102.523,98.7654 -90.7948,130.1914 12.6861,33.9927 42.974,32.917 117.0224,-4.1567 z m -122.7187,-71.9421 c 24.6398,-18.1623 77.1068,-64.1812 116.5933,-102.264 75.538,-72.8528 92.1219,-117.3612 51.6915,-138.7308 -48.9566,-25.876 -462.3511,-49.5851 -462.3511,-26.5168 0,5.288 35.8216,61.3842 79.6037,124.6583 72.2843,104.4658 137.5655,175.8759 160.7808,175.8759 4.8852,0 29.042,-14.8601 53.6818,-33.0226 z m -742.7852,-230.7892 c 16.054,-8.5918 23.7005,-24.0796 23.7005,-48.0048 0,-41.8032 -56.7444,-152.7217 -109.1376,-213.3318 -48.0244,-55.556 -59.5132,-46.5451 -113.8964,89.3303 -39.1615,97.8443 -51.3964,168.6054 -32.5514,188.2615 12.0465,12.565 203.0525,-0.825 231.8849,-16.2552 z m -258.453,-79.4008 c 23.1899,-44.8442 64.7913,-197.4286 57.184,-209.7375 -9.4015,-15.212 -80.8321,-11.7604 -94.3771,4.5603 -6.6061,7.9598 -15.6257,46.4212 -20.0435,85.4696 -14.7097,130.0167 17.2933,196.9494 57.2366,119.7076 z m 548.8383,21.0801 c 55.3907,-15.3836 80.6716,-40.9466 71.7071,-72.5071 -3.8486,-13.5494 -26.4977,-66.1359 -50.3314,-116.859 -95.8322,-203.9512 -137.5771,-236.8277 -152.5885,-120.1722 -22.0057,171.0089 -29.7613,215.8143 -44.3307,256.105 -13.6677,37.7975 -13.5203,45.1408 1.0919,54.3818 22.612,14.3004 121.4815,13.7628 174.4516,-0.949 z m 638.4797,-12.9992 c 4.6049,-24.21 -219.9878,-259.9168 -266.394,-279.5769 -18.2699,-7.74 -43.4162,-11.4059 -55.8808,-8.1463 -12.4645,3.2595 -52.758,51.7589 -89.541,107.7765 -71.8686,109.4498 -87.7054,144.3309 -72.3432,159.3387 12.3016,12.0177 333.0438,44 417.4326,41.6235 48.9771,-1.3791 63.8844,-6.0742 66.7264,-21.0155 z m -837.0964,-58.2975 c 20.0453,-60.3077 36.3062,-174.02 39.0127,-272.8159 1.8454,-67.3609 -0.263,-74.9956 -21.5535,-78.0416 -21.9624,-3.1422 -188.7891,95.9142 -204.5885,121.4781 -11.4787,18.5729 140.7274,278.1991 163.0944,278.1991 4.2944,0 15.1101,-21.9689 24.0349,-48.8197 z m 935.3568,-11.487 c 22.1433,-35.6047 40.5785,-175.506 41.2478,-313.0203 0.597,-122.7369 -25.4344,-419.3904 -38.6831,-440.8273 -18.2964,-29.6042 -45.6571,-6.2471 -136.2587,116.32 -186.6541,252.5081 -191.9989,262.1217 -191.9989,345.3495 v 73.7941 l 126.3966,122.1149 c 135.0234,130.4494 168.1016,146.4277 199.2963,96.2691 z m 101.4944,0 c 20.7874,-37.1444 89.727,-194.6243 89.727,-204.9649 0,-8.2844 127.7867,-320.5578 171.135,-418.2039 72.3377,-162.9476 81.4594,-208.1587 56.13,-278.2058 -10.9575,-30.3025 -10.9575,-43.4206 0,-60.9664 23.7859,-38.0871 15.7093,-78.8455 -31.7143,-160.0458 -44.356,-75.9479 -72.9852,-102.6198 -86.5653,-80.6467 -11.4265,18.4885 -17.9862,111.8512 -27.1587,386.5426 -6.7078,200.8816 -12.9016,271.6919 -25.2548,288.7246 -9.0021,12.412 -41.3887,56.781 -71.97,98.5979 -30.5815,41.8169 -68.0334,110.3024 -83.2266,152.19 -25.8699,71.3226 -50.2749,237.7127 -41.4679,282.7219 5.515,28.1854 33.1408,25.0351 50.3656,-5.7435 z m -633.4865,-126.0315 c 90.3662,-135.0989 89.9259,-151.5236 -5.1537,-192.2795 -49.1435,-21.0654 -169.8374,-45.5156 -227.9242,-46.1731 -37.6044,-0.426 -21.7883,62.3593 54.8493,217.7358 64.5506,130.871 77.3677,149.953 92.3624,137.5084 9.5759,-7.9472 48.2157,-60.5035 85.8662,-116.7916 z m -723.3913,-78.2665 c 34.0271,-18.2108 26.5759,-43.8378 -19.0757,-65.6075 -39.6724,-18.9185 -41.9285,-18.825 -57.4349,2.3813 -8.8772,12.1403 -16.1404,34.0082 -16.1404,48.5953 0,21.9373 6.0876,26.5219 35.2161,26.5219 19.3689,0 45.2146,-5.3509 57.4349,-11.891 z m 189.7475,-81.2354 c 112.7262,-78.2621 119.6484,-87.114 119.6269,-152.9742 l -0.02,-58.3044 -100.4921,-61.6041 c -55.2707,-33.8823 -130.559,-82.1177 -167.3074,-107.1899 -36.7484,-25.0723 -74.2247,-42.7427 -83.2807,-39.2676 -16.6351,6.3835 -23.062,65.5356 -8.6828,79.9149 4.2804,4.2804 19.178,40.0336 33.1057,79.4515 55.1961,156.2155 76.2653,209.9763 86.386,220.4256 5.8138,6.0019 10.5701,21.7678 10.5701,35.0353 0,23.0051 19.3424,51.6914 34.854,51.6914 4.0069,0 37.8648,-21.2303 75.2398,-47.1785 z m -172.1192,-26.3493 c 9.9662,-25.9715 -16.6291,-146.7209 -37.3612,-169.6296 -45.0842,-49.8175 -72.4659,-17.6871 -72.7613,85.3802 -0.142,49.495 3.4154,56.91 37.1759,77.4942 44.1016,26.8893 64.4957,28.7779 72.9466,6.7552 z m 816.6471,-37.2528 c 12.2124,-31.8249 -14.388,-463.0967 -29.4951,-478.2037 -20.6439,-20.6439 -41.8378,-2.7428 -154.3536,130.3722 -111.4915,131.9033 -145.7546,187.9674 -145.7546,238.4953 0,41.9674 10.8794,50.4407 103.3829,80.5196 151.6274,49.304 215.2488,57.4083 226.2204,28.8166 z m 68.3787,-24.1914 c 69.2258,-88.6329 277.6826,-380.4448 283.6186,-397.0287 8.9281,-24.9427 -18.6653,-82.7005 -44.1887,-92.4948 -10.0077,-3.8403 -82.658,-10.4285 -161.445,-14.6405 l -143.2492,-7.658 6.6832,102.2726 c 3.6758,56.2498 11.5206,169.2124 17.4329,251.0277 5.9124,81.8155 10.7497,155.4758 10.7497,163.6895 0,20.6686 11.7838,18.6653 30.3985,-5.1678 z m 501.4587,-63.1785 c 48.5576,-60.0826 65.4659,-91.84 65.4659,-122.9581 0,-48.984 -112.8654,-195.8056 -150.5207,-195.8056 -19.0738,0 -21.7723,8.9321 -21.6898,71.7936 0.103,78.9264 19.9115,270.2071 29.6053,285.8918 13.0649,21.1396 39.2952,7.9048 77.1393,-38.9217 z m -1006.451,-107.6267 c 3.2848,-8.56 -2.171,-63.4445 -12.1239,-121.9655 -23.6515,-139.0657 -37.0232,-151.5768 -150.3512,-140.6725 -84.0805,8.0899 -230.9594,35.5788 -248.7043,46.5457 -5.6163,3.4711 -10.2115,10.6437 -10.2115,15.9391 0,11.0805 178.0869,128.0422 284.7081,186.9872 73.7143,40.7526 124.2296,45.6185 136.6828,13.166 z m 84.914,7.1156 c 18.7241,0 241.6698,-289.0581 237.9549,-308.5182 -2.9524,-15.4662 -25.286,-20.2203 -124.0882,-26.4142 -119.2589,-7.4764 -120.8201,-7.2421 -153.0656,22.974 -53.1362,49.7919 -55.2406,60.4102 -36.1053,182.1778 21.7396,138.3407 24.1489,145.3871 46.7454,136.7159 9.9402,-3.8144 22.7917,-6.9353 28.5588,-6.9353 z m 1028.3716,-399.527 c 8.4865,-313.0591 13.7551,-305.3099 -92.2877,-135.7366 -63.6591,101.7976 -63.9508,102.68 -63.9508,193.5054 0,98.209 2.8469,104.9704 90.1417,214.0844 37.9518,47.4378 40.8378,48.9239 49.5061,25.4914 5.0627,-13.6857 12.5285,-147.4908 16.5907,-297.3446 z m -1370.0305,119.2984 c 74.7607,-14.981 141.3226,-32.6322 147.9154,-39.2249 28.738,-28.7381 -3.4447,-70.7964 -114.5184,-149.6599 -238.0413,-169.0117 -261.9006,-163.5856 -260.1211,59.1576 0.951,119.0358 3.9315,139.7996 21.9595,152.982 11.4726,8.389 31.654,12.717 44.8476,9.618 13.1936,-3.0991 85.1563,-17.8919 159.917,-32.8728 z m 559.0339,-96.8554 c 78.2453,-29.8776 75.4162,-54.2768 -23.434,-202.1041 -79.9645,-119.5845 -83.125,-122.6855 -121.563,-119.2755 -39.3913,3.4947 -39.5481,3.7433 -85.0773,134.9077 -25.0873,72.2737 -45.6133,148.5186 -45.6133,169.4331 v 38.0264 l 111.9981,-0.625 c 76.8637,-0.428 128.214,-6.8168 163.6895,-20.3629 z m 499.2472,-30.3064 45.5114,-38.9443 -26.8324,-187.4923 c -14.7578,-103.1207 -29.1565,-191.4904 -31.9971,-196.3771 -10.9104,-18.7687 -297.764,372.858 -313.6316,428.1852 l -9.876,34.4355 145.6573,-0.432 145.6571,-0.431 45.5113,-38.9444 z m -760.5973,-128.2841 c 46.4422,-139.9177 48.9807,-171.3647 17.3264,-214.642 -14.6548,-20.0358 -23.6825,-19.273 -220.0127,18.5929 -123.8321,23.8834 -208.7975,45.7564 -215.0225,55.3542 -21.2801,32.8102 -2.0384,62.9244 81.7358,127.9205 154.242,119.6686 219.5441,159.335 256.1398,155.5866 32.098,-3.2877 35.602,-9.5559 79.8332,-142.8122 z m 467.0096,21.632 c 167.0212,-213.271 254.4795,-339.9295 242.7927,-351.6162 -12.314,-12.314 -296.1204,16.4061 -429.225,43.4359 -58.1696,11.8126 -69.2728,18.4377 -84.8692,50.6408 -17.321,35.7639 -16.6638,39.4921 18.9296,107.3944 54.9728,104.8726 148.5907,239.1692 166.7245,239.1692 8.761,0 47.3023,-40.0608 85.6474,-89.0241 z m 441.8857,51.6915 c 15.6295,-20.533 49.492,-73.4347 75.25,-117.5593 72.6569,-124.4645 64.0281,-157.7129 -56.7108,-218.516 -72.7895,-36.6561 -149.0987,-52.7691 -149.2188,-31.5082 -0.115,19.3004 47.5152,377.2661 51.9604,390.5574 8.9085,26.6368 50.1087,14.6127 78.7192,-22.9739 z M 2952.3146,2104.4601 c 87.3822,-16.1411 167.1392,-33.7695 177.2378,-39.1741 10.0986,-5.4047 25.1972,-28.7315 33.5524,-51.8376 14.1512,-39.1344 13.1784,-44.9072 -14.2073,-84.3108 -16.1693,-23.2649 -78.2751,-90.9214 -138.013,-150.3478 l -108.6142,-108.0479 -106.4694,213.3085 c -139.4591,279.4024 -142.1714,275.5829 156.5137,220.4097 z m -170.7508,-241.9873 c 60.408,-120.2111 85.139,-180.6484 77.1789,-188.6085 -12.2909,-12.2909 -199.4,3.4903 -224.3723,18.924 -13.9604,8.628 -6.7655,348.6393 7.8788,372.3343 15.464,25.0213 50.5612,-26.0318 139.3146,-202.6498 z m 1426.394,187.6993 c 3.8844,-20.1701 -64.4417,-171.4083 -102.7388,-227.4101 -29.158,-42.6377 -55.5995,-124.5514 -55.7934,-172.8433 -0.262,-65.1792 -13.0669,-113.434 -30.1017,-113.434 -8.5666,0 -18.0545,11.6306 -21.0842,25.8457 -21.6764,101.7061 -63.8511,334.4014 -63.8511,352.2934 0,30.4566 60.222,78.2896 155.0743,123.1716 86.9167,41.1273 112.4446,43.7937 118.4949,12.3767 z m -543.613,-69.312 c 150.7933,-19.3924 195.8794,-29.0188 198.2592,-42.3309 2.7161,-15.1926 -359.6662,-431.111 -407.8425,-468.0946 -48.15,-36.9635 -62.5395,-2.636 -111.5315,266.0703 -35.4627,194.5018 -35.7394,210.7477 -4.1622,244.3601 31.4422,33.4687 64.9928,33.4683 325.277,0 z m -398.5323,-50.9462 c 18.3739,-15.9288 31.962,-67.4726 65.4493,-248.2692 30.4011,-164.135 38.7608,-231.6674 29.7883,-240.64 -15.8472,-15.8472 -76.2905,9.2163 -269.8262,111.8864 -99.6264,52.8515 -144.7159,82.94 -144.7159,96.5699 0,20.2831 227.7935,281.8659 254.911,292.7227 26.9664,10.7963 40.8348,8.1537 64.3935,-12.2698 z m 643.4496,-74.9434 c 15.7212,-18.9429 59.5874,-234.037 59.5874,-292.1815 0,-31.9323 -10.1565,-58.5631 -35.4546,-92.9632 l -35.4547,-48.2109 h -164.8896 c -97.5355,0 -167.7896,-4.6922 -171.989,-11.487 -3.9046,-6.3178 -30.0554,-11.487 -58.1128,-11.487 -68.562,0 -66.7251,19.2825 9.6565,101.3639 33.3685,35.8586 124.4157,133.6885 202.3273,217.3999 136.7037,146.8798 168.134,169.1294 194.3295,137.5658 z M 2817.2794,1643.8711 c 25.4052,-4.4643 37.3327,-12.9857 37.3327,-26.6714 0,-25.6736 -184.7748,-246.0448 -210.4468,-250.9888 -16.8344,-3.242 -19.2928,8.6292 -19.2928,93.1629 0,53.2831 3.3665,121.4402 7.4812,151.4602 l 7.4813,54.5818 70.0559,-7.4922 c 38.5307,-4.1207 86.8556,-10.4443 107.3885,-14.0525 z m 298.4117,-130.5722 c 162.6554,-82.8935 206.8892,-109.9982 196.4875,-120.3999 -17.8928,-17.8928 -532.0827,-109.0318 -615.5125,-109.0982 -29.444,-0.02 -37.3327,4.7327 -37.3327,22.5082 0,21.5875 139.359,198.0031 196.5512,248.8159 61.0839,54.2703 75.9357,51.8793 259.8065,-41.826 z m 800.2694,-139.4079 c 21.501,-30.697 12.5357,-49.6975 -60.6692,-128.5793 -40.382,-43.5134 -81.1526,-70.3517 -171.2191,-112.7097 -65.019,-30.5781 -123.4266,-55.5966 -129.7948,-55.5966 -21.7194,0 -94.7743,173.098 -100.0855,237.1449 l -5.1015,61.5167 130.651,0.176 c 71.8581,0.1 138.4047,5.1867 147.8815,11.311 9.4768,6.1244 51.829,11.2144 94.1163,11.3111 65.8162,0.151 79.3816,-3.3874 94.2213,-24.574 z m -578.895,-25.5862 c 0,-19.3698 -51.9769,-83.5895 -195.2788,-241.2756 l -109.1263,-120.08014 -72.5488,-0.9198 c -39.9019,-0.5059 -82.4433,4.3756 -94.5366,10.8477 -19.9312,10.66694 -21.3384,8.52094 -15.0451,-22.9454 7.7263,-38.6314 -10.4461,-69.231 -41.1146,-69.231 -26.9645,0 -116.0922,43.6653 -147.0343,72.0346 -30.0924,27.59054 -43.1332,83.91694 -32.5229,140.47464 7.974,42.5054 28.7039,51.5855 52.4493,22.974 7.865,-9.4768 19.8033,-17.2305 26.5296,-17.2305 6.7263,0 -1.6604,14.498 -18.637,32.2178 -17.627,18.3986 -30.8666,45.2744 -30.8666,62.6579 0,25.2812 6.3271,31.5998 37.3327,37.2824 112.9077,20.6937 613.8604,107.1304 626.0406,108.0199 7.8973,0.577 14.3588,-6.0951 14.3588,-14.8265 z M 3452.77,1221.5806 c 63.9664,-136.5007 67.2799,-160.8884 27.5005,-202.409 -74.1402,-77.38584 -107.2481,-91.24854 -247.6207,-103.68244 -195.1169,-17.283 -212.7985,-6.8974 -148.1731,87.03244 46.2684,67.2488 288.8237,316.0923 307.8971,315.8792 8.3071,-0.09 35.4854,-43.6619 60.3962,-96.8202 z M 3337.0655,896.44666 c 0,-4.5398 -26.9615,-35.5546 -59.9143,-68.9219 -59.3701,-60.1169 -60.5537,-60.6679 -130.32,-60.6679 -85.0974,0 -115.2842,23.0397 -103.067,78.6644 7.477,34.0424 8.1571,34.3074 107.3368,41.8142 54.8966,4.155 104.9812,9.3539 111.2991,11.553 21.675,7.5447 74.6654,5.8117 74.6654,-2.4418 z"
     style="fill:#000080;fill-opacity:1;stroke-width:11.4869833" />
  <path
     id="path6330-7"
     d="m 2068.7532,627.30199 c 89.4992,24.641 168.3523,74.0669 249.7879,156.5692 45.7747,46.37421 87.1278,98.23631 91.8959,115.24911 4.7681,17.0129 8.6692,736.5205 8.6692,1598.9057 0,1450.9559 -1.4481,1570.4677 -19.4037,1601.3974 -38.4032,66.1519 -158.8376,188.4831 -218.4395,221.8798 -106.5099,59.6808 -174.5481,74.7404 -314.7732,69.6724 -95.5534,-3.4536 -140.8916,-10.7478 -191.8841,-30.8712 -88.2778,-34.8375 -190.9626,-121.9239 -257.9763,-218.7882 l -54.3256,-78.5245 -74.6654,-8.054 c -88.7636,-9.5749 -193.3888,-42.5429 -262.6723,-82.7694 -74.88337,-43.4781 -220.69497,-196.9307 -255.55547,-268.9476 -54.8292,-113.2694 -67.7255,-169.658 -67.6653,-295.8661 l 0.06,-118.9566 -80.8706,-86.5954 c -80.53256,-86.2336 -143.12496,-181.3261 -198.47626,-301.532 -56.773,-123.2934 -65.2626,-147.5023 -65.2626,-186.1021 0,-21.4736 -5.4584,-44.5012 -12.1297,-51.1725 -14.4958,-14.4958 -8.0802,-293.4914 8.5436,-371.5357 39.0422,-183.2933 139.9405,-373.6119 272.65896,-514.3005 l 75.5366,-80.0727 v -86.2244 c 0,-50.658 7.1073,-103.2349 17.2305,-127.4629 9.4767,-22.6811 17.2304,-56.9819 17.2304,-76.2241 0,-19.2422 4.354,-43.9616 9.6755,-54.9321 5.3215,-10.9706 20.8663,-43.2075 34.5439,-71.6378 28.551,-59.3462 157.9474,-218.0378 191.8949,-235.3398 12.5507,-6.3967 38.21957,-22.556 57.04207,-35.9094 75.9433,-53.8775 146.0665,-76.4572 254.9113,-82.0816 98.8784,-5.1093 107.1029,-7.4511 125.3986,-35.706 36.6285,-56.567 182.1436,-198.96601 228.262,-223.37401 25.2713,-13.3748 74.3782,-30.6271 109.1263,-38.3385 74.929,-16.62849 264.7443,-18.01809 321.6355,-2.3545 z m -243.5703,191.1913 c -29.7193,11.28711 -57.7188,24.20571 -62.2212,28.70801 -4.5023,4.5023 -16.0373,8.1861 -25.6334,8.1861 -18.4159,0 -70.6195,43.6084 -70.6195,58.9922 0,4.9718 26.8859,17.0239 59.7464,26.7825 54.7766,16.2668 63.9859,16.1237 110.7125,-1.7213 50.3931,-19.2453 51.2065,-19.1672 72.3539,6.9487 11.7633,14.5271 21.3878,40.3202 21.3878,57.3181 0,24.3081 30.2553,60.816 141.7399,171.0321 77.957,77.0698 150.1431,140.127 160.4136,140.127 30.845,0 40.907,-35.7069 49.2134,-174.6443 l 7.9136,-132.3672 -38.9247,-40.8306 c -26.1819,-27.4639 -80.2901,-58.7834 -165.2815,-95.6703 -69.4962,-30.1618 -131.2675,-59.01611 -137.2694,-64.12071 -17.7135,-15.0652 -65.7449,-10.6871 -123.5314,11.2597 z m -238.883,167.79561 c 0,14.6907 13.8385,46.8159 30.7521,71.3895 16.9137,24.5735 55.0881,80.8631 84.832,125.088 74.7432,111.1322 130.0327,172.3032 146.5243,162.1109 9.2415,-5.7116 13.4265,-51.291 13.1011,-142.6866 l -0.478,-134.2941 -39.9201,-45.2141 c -32.732,-37.0729 -53.8466,-48.7391 -117.2634,-64.7896 -86.6344,-21.927 -117.5478,-14.4591 -117.5478,28.396 z m -169.2458,44.275 c -96.0033,98.3139 -95.3649,144.7561 3.9276,285.6878 41.7497,59.2578 84.3951,117.3578 94.7676,129.1112 18.143,20.5584 19.0773,20.1639 24.6027,-10.3894 5.9952,-33.1512 -4.4779,-263.9492 -16.9028,-372.4896 -10.9997,-96.0904 -36.316,-103.6857 -106.3951,-31.92 z m 146.0367,216.3916 c 5.8023,116.7691 13.951,221.1714 18.1083,232.0052 14.2913,37.2425 195.1489,18.5468 238.3327,-24.637 l 23.9935,-23.9935 -96.3445,-141.0123 c -125.2197,-183.2748 -184.8506,-264.4589 -190.269,-259.0405 -2.4039,2.4038 0.377,99.9089 6.179,216.6781 z m 329.1108,-158.9567 c -3.8095,14.2152 -6.997,89.0486 -7.0832,166.2965 -0.154,137.7905 0.396,140.8126 29.0081,159.5604 24.3769,15.9723 46.3944,17.809 134.1106,11.1873 57.7201,-4.3574 109.2101,-10.558 114.4223,-13.7793 5.2122,-3.2213 9.4767,-30.017 9.4767,-59.546 0,-52.7454 -2.0663,-55.7624 -117.5364,-171.6269 -64.6449,-64.8658 -126.0718,-117.9377 -136.504,-117.9377 -10.4323,0 -22.0846,11.6306 -25.8941,25.8457 z m -791.6086,73.0786 c -117.11297,58.6346 -143.87507,87.0588 -162.46267,172.5522 -7.0625,32.4838 -4.5158,37.1472 26.1171,47.8258 40.92057,14.265 55.69617,5.6905 162.57317,-94.3433 96.8864,-90.6829 102.523,-98.7654 90.7948,-130.1914 -12.6861,-33.9927 -42.974,-32.917 -117.0224,4.1567 z m 122.7187,71.9421 c -24.6398,18.1623 -77.1068,64.1812 -116.5933,102.264 -75.538,72.8528 -92.1219,117.3612 -51.6915,138.7308 48.9566,25.876 462.3511,49.5851 462.3511,26.5168 0,-5.288 -35.8216,-61.3842 -79.6037,-124.6583 -72.2843,-104.4658 -137.5655,-175.8759 -160.7808,-175.8759 -4.8852,0 -29.042,14.8601 -53.6818,33.0226 z m 742.7852,230.7892 c -16.054,8.5918 -23.7005,24.0796 -23.7005,48.0048 0,41.8032 56.7444,152.7217 109.1376,213.3318 48.0244,55.556 59.5132,46.5451 113.8964,-89.3303 39.1615,-97.8443 51.3964,-168.6054 32.5514,-188.2615 -12.0465,-12.565 -203.0525,0.825 -231.8849,16.2552 z m 258.453,79.4008 c -23.1899,44.8442 -64.7913,197.4286 -57.184,209.7375 9.4015,15.212 80.8321,11.7604 94.3771,-4.5603 6.6061,-7.9598 15.6257,-46.4212 20.0435,-85.4696 14.7097,-130.0167 -17.2933,-196.9494 -57.2366,-119.7076 z m -548.8383,-21.0801 c -55.3907,15.3836 -80.6716,40.9466 -71.7071,72.5071 3.8486,13.5494 26.4977,66.1359 50.3314,116.859 95.8322,203.9512 137.5771,236.8277 152.5885,120.1722 22.0057,-171.0089 29.7613,-215.8143 44.3307,-256.105 13.6677,-37.7975 13.5203,-45.1408 -1.0919,-54.3818 -22.612,-14.3004 -121.4815,-13.7628 -174.4516,0.949 z m -638.4797,12.9992 c -4.6049,24.21 219.9878,259.9168 266.394,279.5769 18.2699,7.74 43.4162,11.4059 55.8808,8.1463 12.4645,-3.2595 52.758,-51.7589 89.541,-107.7765 71.8686,-109.4498 87.7054,-144.3309 72.3432,-159.3387 -12.3016,-12.0177 -333.0438,-44 -417.4326,-41.6235 -48.9771,1.3791 -63.8844,6.0742 -66.7264,21.0155 z m 837.0964,58.2975 c -20.0453,60.3077 -36.3062,174.02 -39.0127,272.8159 -1.8454,67.3609 0.263,74.9956 21.5535,78.0416 21.9624,3.1422 188.7891,-95.9142 204.5885,-121.4781 11.4787,-18.5729 -140.7274,-278.1991 -163.0944,-278.1991 -4.2944,0 -15.1101,21.9689 -24.0349,48.8197 z m -935.35677,11.487 c -22.1433,35.6047 -40.5785,175.506 -41.2478,313.0203 -0.597,122.7369 25.4344,419.3904 38.6831,440.8273 18.2964,29.6042 45.6571,6.2471 136.25867,-116.32 186.6541,-252.5081 191.9989,-262.1217 191.9989,-345.3495 v -73.7941 L 1138.2678,1701.1822 C 1003.2444,1570.7328 970.16623,1554.7545 938.97153,1604.9131 Z m -101.4944,0 c -20.7874,37.1444 -89.727,194.6243 -89.727,204.9649 0,8.2844 -127.7867,320.5578 -171.13496,418.2039 -72.3377,162.9476 -81.4594,208.1587 -56.13,278.2058 10.9575,30.3025 10.9575,43.4206 0,60.9664 -23.7859,38.0872 -15.7093,78.8456 31.7143,160.0459 44.35596,75.9479 72.98516,102.6198 86.56526,80.6467 11.4265,-18.4885 17.9862,-111.8512 27.1587,-386.5427 6.7078,-200.8816 12.9016,-271.6919 25.2548,-288.7246 9.0021,-12.412 41.3887,-56.781 71.97,-98.5979 30.5815,-41.8169 68.0334,-110.3024 83.2266,-152.19 25.8699,-71.3226 50.2749,-237.7127 41.4679,-282.7219 -5.515,-28.1854 -33.1408,-25.0351 -50.3656,5.7435 z m 633.48647,126.0315 c -90.3662,135.0989 -89.9259,151.5236 5.1537,192.2795 49.1435,21.0654 169.8374,45.5156 227.9242,46.1731 37.6044,0.426 21.7883,-62.3593 -54.8493,-217.7358 -64.5506,-130.871 -77.3677,-149.953 -92.3624,-137.5084 -9.5759,7.9472 -48.2157,60.5035 -85.8662,116.7916 z m 723.3913,78.2665 c -34.0271,18.2108 -26.5759,43.8378 19.0757,65.6075 39.6724,18.9185 41.9285,18.825 57.4349,-2.3813 8.8772,-12.1403 16.1404,-34.0082 16.1404,-48.5953 0,-21.9373 -6.0876,-26.5219 -35.2161,-26.5219 -19.3689,0 -45.2146,5.3509 -57.4349,11.891 z m -189.7475,81.2354 c -112.7262,78.2621 -119.6484,87.114 -119.6269,152.9742 l 0.02,58.3044 100.4921,61.6041 c 55.2707,33.8823 130.559,82.1177 167.3074,107.1899 36.7484,25.0723 74.2247,42.7427 83.2807,39.2676 16.6351,-6.3835 23.062,-65.5356 8.6828,-79.9149 -4.2804,-4.2804 -19.178,-40.0336 -33.1057,-79.4515 -55.1961,-156.2155 -76.2653,-209.9763 -86.386,-220.4256 -5.8138,-6.0019 -10.5701,-21.7678 -10.5701,-35.0353 0,-23.0051 -19.3424,-51.6914 -34.854,-51.6914 -4.0069,0 -37.8648,21.2303 -75.2398,47.1785 z m 172.1192,26.3493 c -9.9662,25.9715 16.6291,146.7209 37.3612,169.6296 45.0842,49.8175 72.4659,17.6871 72.7613,-85.3802 0.142,-49.495 -3.4154,-56.91 -37.1759,-77.4942 -44.1016,-26.8893 -64.4957,-28.7779 -72.9466,-6.7552 z m -816.6471,37.2528 c -12.2124,31.8249 14.388,463.0967 29.4951,478.2037 20.6439,20.6439 41.8378,2.7428 154.3536,-130.3722 111.4915,-131.9033 145.7546,-187.9674 145.7546,-238.4953 0,-41.9674 -10.8794,-50.4407 -103.3829,-80.5196 -151.6274,-49.304 -215.2488,-57.4083 -226.2204,-28.8166 z m -68.3787,24.1914 c -69.2258,88.6329 -277.6826,380.4448 -283.6186,397.0287 -8.92812,24.9427 18.6653,82.7005 44.1887,92.4948 10.0077,3.8403 82.658,10.4285 161.445,14.6405 l 143.2492,7.658 -6.6832,-102.2726 c -3.6758,-56.2498 -11.5206,-169.2124 -17.4329,-251.0277 -5.9124,-81.8155 -10.7497,-155.4758 -10.7497,-163.6895 0,-20.6686 -11.7838,-18.6653 -30.3985,5.1678 z m -501.45867,63.1785 c -48.5576,60.0826 -65.4659,91.84 -65.4659,122.9581 0,48.984 112.8654,195.8056 150.5207,195.8056 19.0738,0 21.7723,-8.9321 21.6898,-71.7936 -0.103,-78.9264 -19.9115,-270.2071 -29.6053,-285.8918 -13.0649,-21.1396 -39.2952,-7.9048 -77.1393,38.9217 z m 1006.45097,107.6267 c -3.2848,8.56 2.171,63.4445 12.1239,121.9655 23.6515,139.0657 37.0232,151.5768 150.3512,140.6725 84.0805,-8.0899 230.9594,-35.5788 248.7043,-46.5457 5.6163,-3.4711 10.2115,-10.6437 10.2115,-15.9391 0,-11.0805 -178.0869,-128.0422 -284.7081,-186.9872 -73.7143,-40.7526 -124.2296,-45.6185 -136.6828,-13.166 z m -84.914,-7.1156 c -18.7241,0 -241.6698,289.0581 -237.9549,308.5182 2.9524,15.4662 25.286,20.2203 124.0882,26.4142 119.2589,7.4764 120.8201,7.2421 153.0656,-22.974 53.1362,-49.7919 55.2406,-60.4102 36.1053,-182.1778 -21.7396,-138.3407 -24.1489,-145.3871 -46.7454,-136.7159 -9.9402,3.8144 -22.7917,6.9353 -28.5588,6.9353 z m -1028.37157,399.527 c -8.4865,313.0592 -13.7551,305.31 92.2877,135.7367 63.6591,-101.7977 63.9508,-102.6801 63.9508,-193.5055 0,-98.209 -2.8469,-104.9704 -90.1417,-214.0844 -37.9518,-47.4378 -40.8378,-48.9239 -49.5061,-25.4914 -5.0627,13.6857 -12.5285,147.4908 -16.5907,297.3446 z M 2053.438,2422.1582 c -74.7607,14.981 -141.3226,32.6322 -147.9154,39.2249 -28.738,28.7381 3.4447,70.7964 114.5184,149.66 238.0413,169.0117 261.9006,163.5856 260.1211,-59.1577 -0.951,-119.0358 -3.9315,-139.7996 -21.9595,-152.982 -11.4726,-8.389 -31.654,-12.717 -44.8476,-9.618 -13.1936,3.0991 -85.1563,17.8919 -159.917,32.8728 z m -559.0339,96.8554 c -78.2453,29.8776 -75.4162,54.2768 23.434,202.1042 79.9645,119.5845 83.125,122.6855 121.563,119.2755 39.3913,-3.4947 39.5481,-3.7433 85.0773,-134.9077 25.0873,-72.2737 45.6133,-148.5187 45.6133,-169.4332 v -38.0264 l -111.9981,0.625 c -76.8637,0.428 -128.214,6.8168 -163.6895,20.3629 z m -499.24722,30.3064 -45.51135,38.9444 26.8324,187.4923 c 14.75775,103.1207 29.15647,191.4904 31.99707,196.3771 10.9104,18.7687 297.764,-372.858 313.6316,-428.1853 l 9.876,-34.4355 -145.6573,0.432 -145.6571,0.431 -45.51132,38.9444 z m 760.59732,128.2842 c -46.4422,139.9177 -48.9807,171.3647 -17.3264,214.642 14.6548,20.0358 23.6825,19.273 220.0127,-18.5929 123.8321,-23.8834 208.7975,-45.7564 215.0225,-55.3542 21.2801,-32.8102 2.0384,-62.9244 -81.7358,-127.9205 -154.242,-119.6687 -219.5441,-159.3351 -256.1398,-155.5867 -32.098,3.2877 -35.602,9.5559 -79.8332,142.8123 z m -467.0096,-21.632 c -167.0212,213.271 -254.4795,339.9295 -242.7927,351.6162 12.314,12.314 296.1204,-16.4061 429.225,-43.4359 58.1696,-11.8126 69.2728,-18.4377 84.8692,-50.6408 17.321,-35.7639 16.6638,-39.4921 -18.9296,-107.3944 -54.9728,-104.8726 -148.5907,-239.1693 -166.7245,-239.1693 -8.761,0 -47.3023,40.0609 -85.6474,89.0242 z m -441.88567,-51.6915 c -15.6295,20.533 -49.492,73.4347 -75.25,117.5593 -72.6569,124.4645 -64.0281,157.7129 56.7108,218.516 72.7895,36.6561 149.0987,52.7691 149.2188,31.5082 0.115,-19.3004 -47.5152,-377.2661 -51.9604,-390.5575 -8.9085,-26.6368 -50.1087,-14.6127 -78.7192,22.974 z m 1112.70487,290.6767 c -87.3822,16.1411 -167.1392,33.7695 -177.2378,39.1741 -10.0986,5.4047 -25.1972,28.7315 -33.5524,51.8376 -14.1512,39.1344 -13.1784,44.9072 14.2073,84.3108 16.1693,23.2649 78.2751,90.9214 138.013,150.3478 l 108.6142,108.0479 106.4694,-213.3085 c 139.4591,-279.4024 142.1714,-275.5829 -156.5137,-220.4097 z m 170.7508,241.9873 c -60.408,120.2111 -85.139,180.6484 -77.1789,188.6085 12.2909,12.2909 199.4,-3.4903 224.3723,-18.924 13.9604,-8.628 6.7655,-348.6393 -7.8788,-372.3343 -15.464,-25.0213 -50.5612,26.0318 -139.3146,202.6498 z M 703.92063,2949.2454 c -3.8844,20.1701 64.4417,171.4083 102.7388,227.4101 29.158,42.6377 55.5995,124.5514 55.7934,172.8433 0.262,65.1792 13.0669,113.434 30.1017,113.434 8.5666,0 18.0545,-11.6306 21.0842,-25.8457 21.6764,-101.7061 63.8511,-334.4014 63.8511,-352.2934 0,-30.4566 -60.222,-78.2896 -155.0743,-123.1716 -86.9167,-41.1273 -112.4446,-43.7937 -118.4949,-12.3767 z m 543.61297,69.312 c -150.7933,19.3924 -195.8794,29.0188 -198.2592,42.3309 -2.7161,15.1926 359.6662,431.111 407.8425,468.0946 48.15,36.9635 62.5395,2.636 111.5315,-266.0703 35.4627,-194.5018 35.7394,-210.7477 4.1622,-244.3601 -31.4422,-33.4687 -64.9928,-33.4683 -325.277,0 z m 398.5323,50.9462 c -18.3739,15.9288 -31.962,67.4726 -65.4493,248.2692 -30.4011,164.135 -38.7608,231.6674 -29.7883,240.64 15.8472,15.8472 76.2905,-9.2163 269.8262,-111.8864 99.6264,-52.8515 144.7159,-82.94 144.7159,-96.5699 0,-20.2831 -227.7935,-281.8659 -254.911,-292.7227 -26.9664,-10.7963 -40.8348,-8.1537 -64.3935,12.2698 z m -643.4496,74.9434 c -15.72122,18.9429 -59.58737,234.037 -59.58737,292.1815 0,31.9323 10.1565,58.5631 35.4546,92.9632 l 35.45467,48.2109 h 164.8896 c 97.5355,0 167.7896,4.6922 171.989,11.487 3.9046,6.3178 30.0554,11.487 58.1128,11.487 68.562,0 66.7251,-19.2825 -9.6565,-101.3639 -33.3685,-35.8586 -124.4157,-133.6885 -202.3273,-217.3999 -136.7037,-146.8798 -168.134,-169.1294 -194.3295,-137.5658 z m 1091.9827,211.0994 c -25.4052,4.4643 -37.3327,12.9857 -37.3327,26.6714 0,25.6736 184.7748,246.0448 210.4468,250.9888 16.8344,3.242 19.2928,-8.6292 19.2928,-93.1629 0,-53.2831 -3.3665,-121.4402 -7.4812,-151.4602 l -7.4813,-54.5818 -70.0559,7.4922 c -38.5307,4.1207 -86.8556,10.4443 -107.3885,14.0525 z m -298.4117,130.5722 c -162.6554,82.8935 -206.8892,109.9982 -196.4875,120.3999 17.8928,17.8928 532.0827,109.0318 615.5125,109.0982 29.444,0.02 37.3327,-4.7327 37.3327,-22.5082 0,-21.5875 -139.359,-198.0031 -196.5512,-248.8159 -61.0839,-54.2703 -75.9357,-51.8793 -259.8065,41.826 z m -800.26942,139.4079 c -21.50095,30.697 -12.53565,49.6975 60.66922,128.5793 40.382,43.5134 81.1526,70.3517 171.2191,112.7097 65.019,30.5781 123.4266,55.5966 129.7948,55.5966 21.7194,0 94.7743,-173.098 100.0855,-237.1449 l 5.1015,-61.5167 -130.651,-0.176 c -71.8581,-0.1 -138.4047,-5.1867 -147.8815,-11.311 -9.4768,-6.1244 -51.829,-11.2144 -94.1163,-11.3111 -65.8162,-0.151 -79.3816,3.3874 -94.22132,24.574 z m 578.89502,25.5862 c 0,19.3698 51.9769,83.5895 195.2788,241.2756 l 109.1263,120.08 72.5488,0.9198 c 39.9019,0.5059 82.4433,-4.3756 94.5366,-10.8477 19.9312,-10.6668 21.3384,-8.5208 15.0451,22.9455 -7.7263,38.6314 10.4461,69.2309 41.1146,69.2309 26.9645,0 116.0922,-43.6652 147.0343,-72.0346 30.0924,-27.5903 43.1332,-83.9168 32.5229,-140.4745 -7.974,-42.5054 -28.7039,-51.5855 -52.4493,-22.974 -7.865,9.4768 -19.8033,17.2305 -26.5296,17.2305 -6.7263,0 1.6604,-14.498 18.637,-32.2178 17.627,-18.3986 30.8666,-45.2744 30.8666,-62.6579 0,-25.2812 -6.3271,-31.5998 -37.3327,-37.2824 -112.9077,-20.6937 -613.8604,-107.1304 -626.0406,-108.0199 -7.8973,-0.577 -14.3588,6.0951 -14.3588,14.8265 z m -115.7045,126.7242 c -63.9664,136.5007 -67.2799,160.8884 -27.5005,202.4091 74.1402,77.3856 107.2481,91.2483 247.6207,103.6822 195.1169,17.2831 212.7985,6.8974 148.1731,-87.0323 -46.2684,-67.2488 -288.8237,-316.0923 -307.8971,-315.8792 -8.3071,0.09 -35.4854,43.6619 -60.3962,96.8202 z m 115.7045,325.1339 c 0,4.5397 26.9615,35.5546 59.9143,68.9219 59.3701,60.1168 60.5537,60.6679 130.32,60.6679 85.0974,0 115.2842,-23.0397 103.067,-78.6645 -7.477,-34.0424 -8.1571,-34.3073 -107.3368,-41.8141 -54.8966,-4.1551 -104.9812,-9.354 -111.2991,-11.5531 -21.675,-7.5447 -74.6654,-5.8117 -74.6654,2.4419 z"
     style="fill:#ffffff;fill-opacity:1;stroke-width:11.4869833" />
</svg>
